<svg xmlns="http://www.w3.org/2000/svg" viewBox="0 0 21.63 18.92"><path d="M20 7h-7.91a.65.65 0 110-1.3H20A.65.65 0 0120 7zM9.55 16.12H1.64a.65.65 0 010-1.3h7.91a.65.65 0 110 1.3zM5.47 6.84a.51.51 0 00.36-.15.46.46 0 00.17-.33 1.63 1.63 0 00-.16-.56L4.46 2.46 4.31 2a2.54 2.54 0 00-.16-.28.84.84 0 00-.24-.22.9.9 0 00-.36-.08.91.91 0 00-.37.08.66.66 0 00-.18.26 1.24 1.24 0 00-.18.34l-.17.36-1.34 3.37a1.75 1.75 0 00-.12.32.81.81 0 000 .22.42.42 0 00.16.33.5.5 0 00.35.14.41.41 0 00.3-.13 2.53 2.53 0 00.24-.53l.25-.67h2.12l.25.66a2.55 2.55 0 00.14.29.7.7 0 00.13.24.35.35 0 00.35.14zM4.32 4.72H2.77l.77-2.15zm4.51 2.12a1.55 1.55 0 00.67-.14 1.41 1.41 0 00.5-.42 2 2 0 00.33-.64 2.78 2.78 0 00.11-.81 2.48 2.48 0 00-.2-1 1.52 1.52 0 00-1.41-.89 1.44 1.44 0 00-.71.15 2.8 2.8 0 00-.53.37V2a.66.66 0 00-.12-.41.44.44 0 00-.34-.14.41.41 0 00-.33.15.71.71 0 00-.12.45v4.24a.6.6 0 00.12.41.46.46 0 00.66 0 .55.55 0 00.13-.41v-.1c.11.13.2.22.26.28l.24.18a1.22 1.22 0 00.33.14 1.51 1.51 0 00.41.05zm-.24-.75a.83.83 0 01-.69-.31 1.29 1.29 0 01-.27-.89 1.61 1.61 0 01.13-.68 1 1 0 01.34-.43.84.84 0 01.49-.15.78.78 0 01.47.15.89.89 0 01.31.43 1.67 1.67 0 01.11.66 1.39 1.39 0 01-.26.91.78.78 0 01-.63.31zM14 17.46a2.87 2.87 0 00.92-.11 1.33 1.33 0 00.58-.35 1.29 1.29 0 00.33-.58 2.59 2.59 0 00.1-.83v-2.8a1.17 1.17 0 00-.09-.52.37.37 0 00-.37-.19.43.43 0 00-.32.14.61.61 0 00-.13.39v.13a1.66 1.66 0 00-.56-.49 1.45 1.45 0 00-.71-.16 1.72 1.72 0 00-.63.12 1.55 1.55 0 00-.51.37 1.66 1.66 0 00-.34.59 2.63 2.63 0 00.08 1.83 1.61 1.61 0 00.56.7 1.44 1.44 0 00.85.25 1.29 1.29 0 00.69-.17 1.38 1.38 0 00.52-.47V16a.91.91 0 01-.1.4.52.52 0 01-.29.29 1.28 1.28 0 01-.58.11h-.33a.86.86 0 01-.24-.11 1 1 0 01-.19-.16l-.16-.2a.52.52 0 00-.37-.19.4.4 0 00-.29.12.36.36 0 00-.12.28.66.66 0 00.21.46 1.46 1.46 0 00.61.36 2.37 2.37 0 00.88.1zm.06-2.24a.82.82 0 01-.67-.31 1.34 1.34 0 01-.26-.89 1.45 1.45 0 01.25-.9.82.82 0 01.67-.31.87.87 0 01.69.33 1.44 1.44 0 01.26.92 1.3 1.3 0 01-.14.64 1 1 0 01-.35.39.87.87 0 01-.46.13zm5.82.81a.44.44 0 00.35-.15.63.63 0 00.14-.44v-1.86a4.17 4.17 0 000-.5 1.07 1.07 0 00-.14-.39 1.21 1.21 0 00-.45-.45 1.36 1.36 0 00-.65-.16 1.57 1.57 0 00-.85.25 2 2 0 00-.37.34v-1.44a.59.59 0 00-.13-.44.43.43 0 00-.36-.15.44.44 0 00-.35.15.69.69 0 00-.13.44v4.23c0 .39.16.59.48.59a.41.41 0 00.36-.16.56.56 0 00.13-.43v-1.31a2.84 2.84 0 01.08-.77 1 1 0 01.32-.4.78.78 0 01.47-.15.58.58 0 01.52.25 1.6 1.6 0 01.14.72v1.66c-.05.37.11.54.43.54z" fill="#fff"/></svg>