<?xml version="1.0" encoding="utf-8"?>
<!-- Generator: Adobe Illustrator 24.0.3, SVG Export Plug-In . SVG Version: 6.00 Build 0)  -->
<svg version="1.1" id="Layer_1" xmlns="http://www.w3.org/2000/svg" xmlns:xlink="http://www.w3.org/1999/xlink" x="0px" y="0px"
	 viewBox="0 0 64 64" style="enable-background:new 0 0 64 64;" xml:space="preserve">
<style type="text/css">
	.st0{fill:#FFFFFF;}
</style>
<path id="commerce-and-shopping" class="st0" d="M53.2,18.5H17.1l-0.5-6c-0.1-1-0.9-1.7-1.9-1.7h-3.9c-1,0-1.9,0.9-1.9,1.9
	c0,1,0.9,1.9,1.9,1.9c0,0,0,0,0,0h2.1l2.2,24.4c0.2,2,1.2,3.7,2.7,5c-2,2.5-1.5,6.1,1,8.1s6.1,1.5,8.1-1c1.2-1.6,1.6-3.6,0.9-5.5
	h10.4c-1.1,3,0.5,6.3,3.5,7.4c3,1.1,6.3-0.5,7.4-3.5s-0.5-6.3-3.5-7.4c-0.6-0.2-1.3-0.3-2-0.3H22.4c-1.4,0-2.7-0.8-3.2-2.2l30.4-1.8
	c0.8,0,1.5-0.6,1.7-1.4l3.9-15.4c0.3-1-0.4-2.1-1.4-2.3C53.6,18.5,53.4,18.5,53.2,18.5z M22.3,49.4c-1.1,0-2-0.9-2-2
	c0-1.1,0.9-2,2-2s2,0.9,2,2l0,0C24.3,48.5,23.4,49.4,22.3,49.4z M43.6,49.4c-1.1,0-2-0.9-2-2c0-1.1,0.9-2,2-2c1.1,0,2,0.9,2,2l0,0
	C45.6,48.5,44.7,49.4,43.6,49.4L43.6,49.4z M47.9,34l-29.3,1.7l-1.2-13.5h33.4L47.9,34z"/>
</svg>
